<?xml version="1.0" encoding="UTF-8"?>
<svg xmlns="http://www.w3.org/2000/svg" xmlns:xlink="http://www.w3.org/1999/xlink" viewBox="0 0 100 100">
  <defs>
    <style>
      .cls-1 {
        mix-blend-mode: multiply;
      }

      .cls-2 {
        fill: url(#Dégradé_sans_nom_74);
      }

      .cls-3 {
        fill: url(#Dégradé_sans_nom_66);
      }

      .cls-4 {
        fill: url(#Dégradé_sans_nom_7);
      }

      .cls-5 {
        isolation: isolate;
      }

      .cls-6 {
        fill: #fff;
        opacity: .5;
      }
    </style>
    <linearGradient id="Dégradé_sans_nom_74" data-name="Dégradé sans nom 74" x1="-323.55" y1="78.63" x2="-304.68" y2="46" gradientTransform="translate(-269.35) rotate(-180) scale(1 -1)" gradientUnits="userSpaceOnUse">
      <stop offset=".03" stop-color="#e94f1d"/>
      <stop offset=".26" stop-color="#e52f1a"/>
      <stop offset=".49" stop-color="#e20e18"/>
      <stop offset=".62" stop-color="#d91018"/>
      <stop offset=".82" stop-color="#c3171a"/>
      <stop offset="1" stop-color="#aa1f1d"/>
    </linearGradient>
    <linearGradient id="Dégradé_sans_nom_7" data-name="Dégradé sans nom 7" x1="-323.92" y1="37.82" x2="-341.67" y2="72.62" gradientTransform="translate(-269.35) rotate(-180) scale(1 -1)" gradientUnits="userSpaceOnUse">
      <stop offset="0" stop-color="#99264e"/>
      <stop offset=".19" stop-color="#a51f59"/>
      <stop offset=".67" stop-color="#c31274"/>
      <stop offset=".94" stop-color="#ce0d7f"/>
    </linearGradient>
    <linearGradient id="Dégradé_sans_nom_66" data-name="Dégradé sans nom 66" x1="-304.29" y1="13.91" x2="-318.84" y2="36.32" gradientTransform="translate(-269.35) rotate(-180) scale(1 -1)" gradientUnits="userSpaceOnUse">
      <stop offset="0" stop-color="#ffce05"/>
      <stop offset=".27" stop-color="#f7a30d"/>
      <stop offset=".6" stop-color="#ef7615"/>
      <stop offset=".85" stop-color="#e95a1b"/>
      <stop offset="1" stop-color="#e8501d"/>
    </linearGradient>
  </defs>
  <g class="cls-5">
    <g id="Calque_1" data-name="Calque 1">
      <circle class="cls-6" cx="50" cy="50" r="50"/>
      <g>
        <path class="cls-2" d="M29.29,84.02c-1.42-.68-2.77-1.52-4-2.55-.06-.05-.12-.11-.18-.16-.38-.32-.74-.66-1.09-1.02-.15-.15-.29-.31-.44-.47-.25-.27-.49-.54-.73-.82-.21-.26-.41-.53-.61-.8-.15-.2-.3-.4-.44-.61-.23-.35-.45-.71-.66-1.07-.09-.15-.17-.3-.26-.45-.23-.42-.44-.85-.64-1.29-.04-.1-.09-.2-.13-.3-.21-.48-.4-.97-.56-1.47-.02-.06-.04-.13-.06-.19-.16-.51-.31-1.03-.43-1.55-.02-.08-.03-.16-.05-.24-.11-.49-.19-.98-.26-1.47-.02-.16-.04-.31-.05-.47-.05-.4-.08-.81-.1-1.22-.01-.28-.02-.56-.02-.84,0-.28,0-.56,.02-.84,.02-.41,.05-.81,.1-1.22,.02-.16,.03-.31,.05-.47,.07-.5,.15-.99,.26-1.48,.02-.08,.03-.16,.05-.23,.12-.52,.26-1.04,.43-1.55,.02-.06,.04-.12,.06-.19,.17-.5,.35-.99,.56-1.47,.04-.1,.09-.2,.13-.3,.2-.44,.41-.87,.64-1.29,.08-.15,.17-.3,.25-.45,.21-.36,.43-.72,.66-1.07,.14-.21,.29-.41,.44-.61,.2-.27,.4-.54,.61-.8,.23-.28,.48-.56,.72-.82,.14-.16,.29-.32,.44-.47,.35-.35,.71-.69,1.09-1.01,.06-.05,.12-.11,.19-.16,1.22-1.02,2.57-1.87,4-2.55,5.12-2.45,11.27-2.61,16.7,.13l33.31,16.85s-.01,0-.02,.01c0,0,.01,0,.02,.01l-33.31,16.85c-5.42,2.74-11.58,2.58-16.7,.13Z"/>
        <path class="cls-4" d="M29.29,50.04l-.06-.03,33.38-16.88c5.63-2.85,12.05-2.57,17.28,.16,.4,.21,.79,.44,1.18,.67,.14,.09,.28,.17,.42,.26,.43,.28,.84,.57,1.23,.88,.08,.06,.16,.12,.23,.18,.46,.37,.9,.76,1.32,1.16h.01c3.08,3.01,5.01,6.96,5.57,11.14,.01,.09,.02,.18,.03,.26,.05,.45,.09,.9,.11,1.36,.01,.27,.02,.54,.01,.81,0,.27,0,.54-.01,.81-.02,.45-.05,.91-.11,1.36-.01,.09-.02,.18-.03,.26-.56,4.18-2.49,8.13-5.57,11.12,0,0,0,0-.01,.01-.42,.41-.86,.79-1.32,1.16-.08,.06-.16,.12-.23,.18-.4,.31-.81,.6-1.23,.88-.14,.09-.28,.17-.42,.26-.38,.24-.77,.46-1.18,.67-.19,.1-.39,.2-.58,.29l-33.31-16.85c-5.42-2.74-11.58-2.58-16.7-.13Z"/>
        <g class="cls-1">
          <path class="cls-3" d="M62.61,33.13L29.23,50l-.3-.15c-9.28-4.69-13.03-16.12-8.34-25.39,4.69-9.28,16.12-13.03,25.39-8.34l33.68,17.03c.08,.04,.15,.09,.22,.13-5.23-2.72-11.65-3.01-17.28-.16Z"/>
        </g>
      </g>
    </g>
  </g>
</svg>